<?xml version="1.0" encoding="utf-8"?>
<!-- Generator: Adobe Illustrator 26.0.1, SVG Export Plug-In . SVG Version: 6.00 Build 0)  -->
<svg version="1.1" id="Layer_1" xmlns="http://www.w3.org/2000/svg" xmlns:xlink="http://www.w3.org/1999/xlink" x="0px" y="0px"
	 viewBox="0 0 200 200" style="enable-background:new 0 0 200 200;" xml:space="preserve">
<style type="text/css">
	.st0{fill:#008300;}
	.st1{fill:#00FF00;}
	.st2{fill:none;}
	.st3{fill:#FFFFFF;}
</style>
<rect x="-1.75" y="-2.87" width="205.75" height="207.15"/>
<polyline class="st0" points="34.83,62.28 9.37,131.73 9.59,131.73 9.53,131.89 9.75,131.89 9.69,132.05 9.91,132.05 9.85,132.21 
	10.07,132.21 10.01,132.37 10.23,132.37 10.17,132.53 10.39,132.53 10.33,132.69 10.55,132.69 10.49,132.85 10.71,132.85 
	10.65,133.01 10.87,133.01 10.82,133.17 11.03,133.17 10.98,133.33 11.19,133.33 11.14,133.49 11.36,133.49 11.3,133.65 
	11.52,133.65 11.46,133.81 11.68,133.81 11.62,133.97 11.84,133.97 11.78,134.13 12,134.13 11.94,134.29 12.16,134.29 12.1,134.45 
	12.32,134.45 12.26,134.61 12.48,134.61 12.42,134.77 12.64,134.77 12.58,134.93 12.8,134.93 12.74,135.09 12.96,135.09 
	12.9,135.25 13.12,135.25 13.06,135.41 13.28,135.41 13.22,135.58 13.44,135.58 13.38,135.74 13.6,135.74 13.54,135.9 13.76,135.9 
	13.7,136.06 13.92,136.06 13.86,136.22 14.08,136.22 14.02,136.38 14.24,136.38 14.18,136.54 14.4,136.54 14.34,136.7 14.56,136.7 
	14.5,136.86 14.72,136.86 14.67,137.02 14.88,137.02 14.83,137.18 15.04,137.18 14.99,137.34 15.21,137.34 15.15,137.5 15.37,137.5 
	15.31,137.66 15.53,137.66 15.47,137.82 15.69,137.82 15.63,137.98 15.85,137.98 15.79,138.14 16.01,138.14 15.95,138.3 
	16.17,138.3 16.11,138.46 16.33,138.46 16.27,138.62 16.49,138.62 16.43,138.78 16.65,138.78 16.59,138.94 16.81,138.94 
	16.75,139.1 16.97,139.1 16.91,139.26 17.13,139.26 17.07,139.42 17.29,139.42 17.23,139.59 17.45,139.59 17.39,139.75 
	17.61,139.75 17.55,139.91 17.77,139.91 17.71,140.07 17.93,140.07 17.87,140.23 18.09,140.23 18.03,140.39 18.25,140.39 
	18.19,140.55 18.41,140.55 18.35,140.71 18.57,140.71 18.51,140.87 18.73,140.87 18.68,141.03 18.89,141.03 18.84,141.19 
	19.05,141.19 19,141.35 19.22,141.35 19.16,141.51 19.38,141.51 19.32,141.67 19.54,141.67 19.48,141.83 19.7,141.83 19.64,141.99 
	19.86,141.99 19.8,142.15 20.02,142.15 19.96,142.31 20.18,142.31 20.12,142.47 20.34,142.47 20.28,142.63 20.5,142.63 
	20.44,142.79 20.66,142.79 20.6,142.95 20.82,142.95 20.76,143.11 20.98,143.11 20.92,143.27 21.14,143.27 21.08,143.44 
	21.3,143.44 21.24,143.6 21.46,143.6 21.4,143.76 21.62,143.76 21.56,143.92 21.78,143.92 21.72,144.08 21.94,144.08 21.88,144.24 
	22.1,144.24 22.04,144.4 22.26,144.4 22.2,144.56 22.42,144.56 22.36,144.72 22.58,144.72 22.52,144.88 22.74,144.88 22.69,145.04 
	22.9,145.04 22.85,145.2 23.06,145.2 23.01,145.36 23.23,145.36 23.17,145.52 23.39,145.52 23.33,145.68 23.55,145.68 23.49,145.84 
	23.71,145.84 23.65,146 23.87,146 23.81,146.16 24.03,146.16 23.97,146.32 24.19,146.32 24.13,146.48 24.35,146.48 24.29,146.64 
	24.51,146.64 24.45,146.8 24.67,146.8 24.61,146.96 24.83,146.96 24.77,147.12 24.99,147.12 24.93,147.28 25.15,147.28 
	25.09,147.45 25.31,147.45 25.25,147.61 25.47,147.61 25.41,147.77 25.63,147.77 25.57,147.93 25.79,147.93 25.73,148.09 
	25.95,148.09 25.89,148.25 26.11,148.25 26.05,148.41 26.27,148.41 26.21,148.57 26.43,148.57 26.37,148.73 26.59,148.73 
	26.54,148.89 26.75,148.89 26.7,149.05 26.91,149.05 26.86,149.21 27.08,149.21 27.02,149.37 27.24,149.37 27.18,149.53 
	27.4,149.53 27.34,149.69 27.56,149.69 27.5,149.85 27.72,149.85 27.66,150.01 27.88,150.01 27.82,150.17 28.04,150.17 
	27.98,150.33 28.2,150.33 28.14,150.49 28.36,150.49 28.3,150.65 28.52,150.65 28.46,150.81 28.68,150.81 28.62,150.97 
	28.84,150.97 28.78,151.13 29,151.13 28.94,151.29 29.16,151.29 29.1,151.46 29.32,151.46 29.26,151.62 29.48,151.62 29.42,151.78 
	29.64,151.78 29.58,151.94 29.8,151.94 29.74,152.1 29.96,152.1 29.9,152.26 30.12,152.26 30.06,152.42 30.28,152.42 30.22,152.58 
	30.44,152.58 30.38,152.74 30.6,152.74 30.55,152.9 30.76,152.9 30.71,153.06 30.92,153.06 30.87,153.22 31.09,153.22 31.03,153.38 
	31.25,153.38 31.19,153.54 31.41,153.54 31.35,153.7 31.57,153.7 31.51,153.86 31.73,153.86 31.67,154.02 31.89,154.02 
	31.83,154.18 32.05,154.18 31.99,154.34 32.21,154.34 32.15,154.5 32.37,154.5 32.31,154.66 32.53,154.66 32.47,154.82 
	32.69,154.82 32.63,154.98 32.85,154.98 32.79,155.14 33.01,155.14 32.95,155.31 33.17,155.31 33.11,155.47 33.33,155.47 
	33.27,155.63 33.49,155.63 33.43,155.79 33.65,155.79 33.59,155.95 33.81,155.95 33.75,156.11 33.97,156.11 33.91,156.27 
	34.13,156.27 34.07,156.43 34.29,156.43 34.23,156.59 34.45,156.59 34.39,156.75 34.61,156.75 34.56,156.91 34.77,156.91 
	34.72,157.07 34.94,157.07 34.88,157.23 35.1,157.23 35.04,157.39 35.26,157.39 35.2,157.55 35.42,157.55 35.36,157.71 
	35.58,157.71 35.52,157.87 35.74,157.87 35.68,158.03 35.9,158.03 35.84,158.19 36.06,158.19 36,158.35 36.22,158.35 36.16,158.51 
	36.38,158.51 36.32,158.67 36.54,158.67 36.48,158.83 36.7,158.83 36.64,158.99 36.86,158.99 36.8,159.15 37.02,159.15 
	36.96,159.32 37.18,159.32 37.12,159.48 37.34,159.48 37.28,159.64 37.5,159.64 37.44,159.8 37.66,159.8 37.6,159.96 37.82,159.96 
	37.76,160.12 37.98,160.12 37.92,160.28 38.14,160.28 38.08,160.44 38.3,160.44 38.24,160.6 38.46,160.6 38.41,160.76 38.62,160.76 
	38.57,160.92 38.78,160.92 38.73,161.08 38.95,161.08 38.89,161.24 39.11,161.24 39.05,161.4 39.27,161.4 39.21,161.56 
	39.43,161.56 39.37,161.72 39.59,161.72 39.53,161.88 39.75,161.88 39.69,162.04 39.91,162.04 39.85,162.2 40.07,162.2 
	40.01,162.36 40.23,162.36 40.17,162.52 40.39,162.52 40.33,162.68 40.55,162.68 40.49,162.84 40.71,162.84 40.65,163 40.87,163 
	40.81,163.16 41.03,163.16 40.97,163.33 41.19,163.33 41.13,163.49 41.35,163.49 41.29,163.65 41.51,163.65 41.45,163.81 
	41.67,163.81 41.61,163.97 41.83,163.97 41.77,164.13 41.99,164.13 41.93,164.29 42.15,164.29 42.09,164.45 42.31,164.45 
	42.25,164.61 42.47,164.61 42.42,164.77 42.63,164.77 42.58,164.93 42.79,164.93 42.74,165.09 42.96,165.09 42.9,165.25 
	43.12,165.25 43.06,165.41 43.28,165.41 43.22,165.57 43.44,165.57 43.38,165.73 43.6,165.73 43.54,165.89 43.76,165.89 
	43.7,166.05 43.92,166.05 43.86,166.21 44.08,166.21 44.02,166.37 44.24,166.37 44.18,166.53 44.4,166.53 44.34,166.69 
	44.56,166.69 44.5,166.85 44.72,166.85 44.66,167.01 44.88,167.01 44.82,167.18 45.04,167.18 44.98,167.34 45.2,167.34 45.14,167.5 
	45.36,167.5 45.3,167.66 45.52,167.66 45.46,167.82 45.68,167.82 45.62,167.98 45.84,167.98 45.78,168.14 46,168.14 45.94,168.3 
	46.16,168.3 46.1,168.46 46.32,168.46 46.27,168.62 46.48,168.62 46.43,168.78 46.64,168.78 46.59,168.94 46.81,168.94 46.75,169.1 
	46.97,169.1 46.91,169.26 47.13,169.26 47.07,169.42 47.29,169.42 47.23,169.58 47.45,169.58 47.39,169.74 47.61,169.74 
	47.55,169.9 47.77,169.9 47.71,170.06 47.93,170.06 47.87,170.22 48.09,170.22 48.03,170.38 48.25,170.38 48.19,170.54 
	48.41,170.54 48.35,170.7 48.57,170.7 48.51,170.86 48.73,170.86 48.67,171.02 48.89,171.02 48.83,171.19 49.05,171.19 
	48.99,171.35 49.21,171.35 49.15,171.51 49.37,171.51 49.31,171.67 49.53,171.67 49.47,171.83 49.69,171.83 49.63,171.99 
	49.85,171.99 49.79,172.15 50.01,172.15 49.95,172.31 50.17,172.31 50.11,172.47 50.33,172.47 50.28,172.63 50.49,172.63 
	50.44,172.79 50.65,172.79 50.6,172.95 50.82,172.95 50.76,173.11 50.98,173.11 50.92,173.27 51.14,173.27 51.08,173.43 
	51.3,173.43 51.24,173.59 51.46,173.59 51.4,173.75 51.62,173.75 51.56,173.91 51.78,173.91 51.72,174.07 51.94,174.07 
	51.88,174.23 52.1,174.23 52.04,174.39 52.26,174.39 52.2,174.55 52.42,174.55 52.36,174.71 52.58,174.71 52.52,174.87 
	52.74,174.87 52.68,175.04 52.9,175.04 52.84,175.2 53.06,175.2 53,175.36 53.22,175.36 53.16,175.52 53.38,175.52 53.32,175.68 
	53.54,175.68 53.48,175.84 53.7,175.84 53.64,176 53.86,176 53.8,176.16 54.02,176.16 53.96,176.32 54.18,176.32 54.12,176.48 
	54.34,176.48 54.29,176.64 54.5,176.64 54.45,176.8 54.66,176.8 54.61,176.96 54.83,176.96 54.77,177.12 54.99,177.12 54.93,177.28 
	55.15,177.28 55.09,177.44 55.31,177.44 55.25,177.6 55.47,177.6 55.41,177.76 55.63,177.76 55.57,177.92 55.79,177.92 
	55.73,178.08 55.95,178.08 55.89,178.24 56.11,178.24 56.05,178.4 56.27,178.4 56.21,178.56 56.43,178.56 56.37,178.72 
	56.59,178.72 56.53,178.88 56.75,178.88 56.69,179.05 56.91,179.05 56.85,179.21 57.07,179.21 57.01,179.37 57.23,179.37 
	57.17,179.53 57.39,179.53 57.33,179.69 57.55,179.69 57.49,179.85 57.71,179.85 57.65,180.01 94.56,180.01 100.14,164.77 
	100.16,164.77 100.1,164.93 100.32,164.93 100.26,165.09 100.48,165.09 100.42,165.25 100.64,165.25 100.58,165.41 100.8,165.41 
	100.74,165.57 100.96,165.57 100.9,165.73 101.12,165.73 101.06,165.89 101.28,165.89 101.22,166.05 101.44,166.05 101.38,166.21 
	101.6,166.21 101.54,166.37 101.76,166.37 101.7,166.53 101.92,166.53 101.86,166.69 102.08,166.69 102.02,166.85 102.24,166.85 
	102.18,167.01 102.4,167.01 102.34,167.18 102.56,167.18 102.5,167.34 102.72,167.34 102.66,167.5 102.88,167.5 102.83,167.66 
	103.04,167.66 102.99,167.82 103.2,167.82 103.15,167.98 103.37,167.98 103.31,168.14 103.53,168.14 103.47,168.3 103.69,168.3 
	103.63,168.46 103.85,168.46 103.79,168.62 104.01,168.62 103.95,168.78 104.17,168.78 104.11,168.94 104.33,168.94 104.27,169.1 
	104.49,169.1 104.43,169.26 104.65,169.26 104.59,169.42 104.81,169.42 104.75,169.58 104.97,169.58 104.91,169.74 105.13,169.74 
	105.07,169.9 105.29,169.9 105.23,170.06 105.45,170.06 105.39,170.22 105.61,170.22 105.55,170.38 105.77,170.38 105.71,170.54 
	105.93,170.54 105.87,170.7 106.09,170.7 106.03,170.86 106.25,170.86 106.19,171.02 106.41,171.02 106.35,171.19 106.57,171.19 
	106.51,171.35 106.73,171.35 106.67,171.51 106.89,171.51 106.84,171.67 107.05,171.67 107,171.83 107.21,171.83 107.16,171.99 
	107.38,171.99 107.32,172.15 107.54,172.15 107.48,172.31 107.7,172.31 107.64,172.47 107.86,172.47 107.8,172.63 108.02,172.63 
	107.96,172.79 108.18,172.79 108.12,172.95 108.34,172.95 108.28,173.11 108.5,173.11 108.44,173.27 108.66,173.27 108.6,173.43 
	108.82,173.43 108.76,173.59 108.98,173.59 108.92,173.75 109.14,173.75 109.08,173.91 109.3,173.91 109.24,174.07 109.46,174.07 
	109.4,174.23 109.62,174.23 109.56,174.39 109.78,174.39 109.72,174.55 109.94,174.55 109.88,174.71 110.1,174.71 110.04,174.87 
	110.26,174.87 110.2,175.04 110.42,175.04 110.36,175.2 110.58,175.2 110.52,175.36 110.74,175.36 110.68,175.52 110.9,175.52 
	110.85,175.68 111.06,175.68 111.01,175.84 111.22,175.84 111.17,176 111.39,176 111.33,176.16 111.55,176.16 111.49,176.32 
	111.71,176.32 111.65,176.48 111.87,176.48 111.81,176.64 112.03,176.64 111.97,176.8 112.19,176.8 112.13,176.96 112.35,176.96 
	112.29,177.12 112.51,177.12 112.45,177.28 112.67,177.28 112.61,177.44 112.83,177.44 112.77,177.6 112.99,177.6 112.93,177.76 
	113.15,177.76 113.09,177.92 113.31,177.92 113.25,178.08 113.47,178.08 113.41,178.24 113.63,178.24 113.57,178.4 113.79,178.4 
	113.73,178.56 113.95,178.56 113.89,178.72 114.11,178.72 114.05,178.88 114.27,178.88 114.21,179.05 114.43,179.05 114.37,179.21 
	114.59,179.21 114.53,179.37 114.75,179.37 114.7,179.53 114.91,179.53 114.86,179.69 115.07,179.69 115.02,179.85 115.24,179.85 
	115.18,180.01 152.25,180.01 152.34,179.78 "/>
<polyline class="st1" points="34.83,62.28 51.74,16.16 88.64,16.16 88.59,16.32 88.8,16.32 88.75,16.48 88.96,16.48 88.91,16.64 
	89.13,16.64 89.07,16.8 89.29,16.8 89.23,16.96 89.45,16.96 89.39,17.12 89.61,17.12 89.55,17.28 89.77,17.28 89.71,17.44 
	89.93,17.44 89.87,17.6 90.09,17.6 90.03,17.77 90.25,17.77 90.19,17.93 90.41,17.93 90.35,18.09 90.57,18.09 90.51,18.25 
	90.73,18.25 90.67,18.41 90.89,18.41 90.83,18.57 91.05,18.57 90.99,18.73 91.21,18.73 91.15,18.89 91.37,18.89 91.31,19.05 
	91.53,19.05 91.47,19.21 91.69,19.21 91.63,19.37 91.85,19.37 91.79,19.53 92.01,19.53 91.95,19.69 92.17,19.69 92.11,19.85 
	92.33,19.85 92.27,20.01 92.49,20.01 92.44,20.17 92.65,20.17 92.6,20.33 92.81,20.33 92.76,20.49 92.98,20.49 92.92,20.65 
	93.14,20.65 93.08,20.81 93.3,20.81 93.24,20.97 93.46,20.97 93.4,21.13 93.62,21.13 93.56,21.29 93.78,21.29 93.72,21.45 
	93.94,21.45 93.88,21.61 94.1,21.61 94.04,21.78 94.26,21.78 94.2,21.94 94.42,21.94 94.36,22.1 94.58,22.1 94.52,22.26 
	94.74,22.26 94.68,22.42 94.9,22.42 94.84,22.58 95.06,22.58 95,22.74 95.22,22.74 95.16,22.9 95.38,22.9 95.32,23.06 95.54,23.06 
	95.48,23.22 95.7,23.22 95.64,23.38 95.86,23.38 95.8,23.54 96.02,23.54 95.96,23.7 96.18,23.7 96.12,23.86 96.34,23.86 
	96.28,24.02 96.5,24.02 96.45,24.18 96.66,24.18 96.61,24.34 96.82,24.34 96.77,24.5 96.99,24.5 96.93,24.66 97.15,24.66 
	97.09,24.82 97.31,24.82 97.25,24.98 97.47,24.98 97.41,25.14 97.63,25.14 97.57,25.3 97.79,25.3 97.73,25.46 97.95,25.46 
	97.89,25.62 98.11,25.62 98.05,25.79 98.27,25.79 98.21,25.95 98.43,25.95 98.37,26.11 98.59,26.11 98.53,26.27 98.75,26.27 
	98.69,26.43 98.91,26.43 98.85,26.59 99.07,26.59 99.01,26.75 99.23,26.75 99.17,26.91 99.39,26.91 99.33,27.07 99.55,27.07 
	99.49,27.23 99.71,27.23 99.65,27.39 99.87,27.39 99.81,27.55 100.03,27.55 99.97,27.71 100.19,27.71 100.13,27.87 100.35,27.87 
	100.29,28.03 100.51,28.03 100.46,28.19 100.67,28.19 100.62,28.35 100.83,28.35 100.78,28.51 101,28.51 100.94,28.67 101.16,28.67 
	101.1,28.83 101.32,28.83 101.26,28.99 101.48,28.99 101.42,29.15 101.64,29.15 101.58,29.31 101.8,29.31 101.74,29.47 
	101.96,29.47 101.9,29.64 102.12,29.64 102.06,29.8 102.28,29.8 102.22,29.96 102.44,29.96 102.38,30.12 102.6,30.12 102.54,30.28 
	102.76,30.28 102.7,30.44 102.92,30.44 102.86,30.6 103.08,30.6 103.02,30.76 103.24,30.76 103.18,30.92 103.4,30.92 103.34,31.08 
	103.56,31.08 103.5,31.24 103.72,31.24 103.66,31.4 103.68,31.4 109.26,16.16 146.34,16.16 146.28,16.32 146.5,16.32 146.44,16.48 
	146.66,16.48 146.6,16.64 146.82,16.64 146.76,16.8 146.98,16.8 146.92,16.96 147.14,16.96 147.08,17.12 147.3,17.12 147.24,17.28 
	147.46,17.28 147.4,17.44 147.62,17.44 147.56,17.6 147.78,17.6 147.73,17.77 147.94,17.77 147.89,17.93 148.1,17.93 148.05,18.09 
	148.27,18.09 148.21,18.25 148.43,18.25 148.37,18.41 148.59,18.41 148.53,18.57 148.75,18.57 148.69,18.73 148.91,18.73 
	148.85,18.89 149.07,18.89 149.01,19.05 149.23,19.05 149.17,19.21 149.39,19.21 149.33,19.37 149.55,19.37 149.49,19.53 
	149.71,19.53 149.65,19.69 149.87,19.69 149.81,19.85 150.03,19.85 149.97,20.01 150.19,20.01 150.13,20.17 150.35,20.17 
	150.29,20.33 150.51,20.33 150.45,20.49 150.67,20.49 150.61,20.65 150.83,20.65 150.77,20.81 150.99,20.81 150.93,20.97 
	151.15,20.97 151.09,21.13 151.31,21.13 151.25,21.29 151.47,21.29 151.41,21.45 151.63,21.45 151.58,21.61 151.79,21.61 
	151.74,21.78 151.95,21.78 151.9,21.94 152.12,21.94 152.06,22.1 152.28,22.1 152.22,22.26 152.44,22.26 152.38,22.42 152.6,22.42 
	152.54,22.58 152.76,22.58 152.7,22.74 152.92,22.74 152.86,22.9 153.08,22.9 153.02,23.06 153.24,23.06 153.18,23.22 153.4,23.22 
	153.34,23.38 153.56,23.38 153.5,23.54 153.72,23.54 153.66,23.7 153.88,23.7 153.82,23.86 154.04,23.86 153.98,24.02 154.2,24.02 
	154.14,24.18 154.36,24.18 154.3,24.34 154.52,24.34 154.46,24.5 154.68,24.5 154.62,24.66 154.84,24.66 154.78,24.82 155,24.82 
	154.94,24.98 155.16,24.98 155.1,25.14 155.32,25.14 155.26,25.3 155.48,25.3 155.42,25.46 155.64,25.46 155.59,25.62 155.8,25.62 
	155.75,25.79 155.96,25.79 155.91,25.95 156.13,25.95 156.07,26.11 156.29,26.11 156.23,26.27 156.45,26.27 156.39,26.43 
	156.61,26.43 156.55,26.59 156.77,26.59 156.71,26.75 156.93,26.75 156.87,26.91 157.09,26.91 157.03,27.07 157.25,27.07 
	157.19,27.23 157.41,27.23 157.35,27.39 157.57,27.39 157.51,27.55 157.73,27.55 157.67,27.71 157.89,27.71 157.83,27.87 
	158.05,27.87 157.99,28.03 158.21,28.03 158.15,28.19 158.37,28.19 158.31,28.35 158.53,28.35 158.47,28.51 158.69,28.51 
	158.63,28.67 158.85,28.67 158.79,28.83 159.01,28.83 158.95,28.99 159.17,28.99 159.11,29.15 159.33,29.15 159.27,29.31 
	159.49,29.31 159.43,29.47 159.65,29.47 159.6,29.64 159.81,29.64 159.76,29.8 159.97,29.8 159.92,29.96 160.14,29.96 160.08,30.12 
	160.3,30.12 160.24,30.28 160.46,30.28 160.4,30.44 160.62,30.44 160.56,30.6 160.78,30.6 160.72,30.76 160.94,30.76 160.88,30.92 
	161.1,30.92 161.04,31.08 161.26,31.08 161.2,31.24 161.42,31.24 161.36,31.4 161.58,31.4 161.52,31.56 161.74,31.56 161.68,31.72 
	161.9,31.72 161.84,31.88 162.06,31.88 162,32.04 162.22,32.04 162.16,32.2 162.38,32.2 162.32,32.36 162.54,32.36 162.48,32.52 
	162.7,32.52 162.64,32.68 162.86,32.68 162.8,32.84 163.02,32.84 162.96,33 163.18,33 163.12,33.16 163.34,33.16 163.28,33.32 
	163.5,33.32 163.45,33.48 163.66,33.48 163.61,33.65 163.82,33.65 163.77,33.81 163.99,33.81 163.93,33.97 164.15,33.97 
	164.09,34.13 164.31,34.13 164.25,34.29 164.47,34.29 164.41,34.45 164.63,34.45 164.57,34.61 164.79,34.61 164.73,34.77 
	164.95,34.77 164.89,34.93 165.11,34.93 165.05,35.09 165.27,35.09 165.21,35.25 165.43,35.25 165.37,35.41 165.59,35.41 
	165.53,35.57 165.75,35.57 165.69,35.73 165.91,35.73 165.85,35.89 166.07,35.89 166.01,36.05 166.23,36.05 166.17,36.21 
	166.39,36.21 166.33,36.37 166.55,36.37 166.49,36.53 166.71,36.53 166.65,36.69 166.87,36.69 166.81,36.85 167.03,36.85 
	166.97,37.01 167.19,37.01 167.13,37.17 167.35,37.17 167.29,37.33 167.51,37.33 167.46,37.49 167.67,37.49 167.62,37.66 
	167.83,37.66 167.78,37.82 168,37.82 167.94,37.98 168.16,37.98 168.1,38.14 168.32,38.14 168.26,38.3 168.48,38.3 168.42,38.46 
	168.64,38.46 168.58,38.62 168.8,38.62 168.74,38.78 168.96,38.78 168.9,38.94 169.12,38.94 169.06,39.1 169.28,39.1 169.22,39.26 
	169.44,39.26 169.38,39.42 169.6,39.42 169.54,39.58 169.76,39.58 169.7,39.74 169.92,39.74 169.86,39.9 170.08,39.9 170.02,40.06 
	170.24,40.06 170.18,40.22 170.4,40.22 170.34,40.38 170.56,40.38 170.5,40.54 170.72,40.54 170.66,40.7 170.88,40.7 170.82,40.86 
	171.04,40.86 170.98,41.02 171.2,41.02 171.14,41.18 171.36,41.18 171.3,41.34 171.52,41.34 171.47,41.51 171.68,41.51 
	171.63,41.67 171.84,41.67 171.79,41.83 172.01,41.83 171.95,41.99 172.17,41.99 172.11,42.15 172.33,42.15 172.27,42.31 
	172.49,42.31 172.43,42.47 172.65,42.47 172.59,42.63 172.81,42.63 172.75,42.79 172.97,42.79 172.91,42.95 173.13,42.95 
	173.07,43.11 173.29,43.11 173.23,43.27 173.45,43.27 173.39,43.43 173.61,43.43 173.55,43.59 173.77,43.59 173.71,43.75 
	173.93,43.75 173.87,43.91 174.09,43.91 174.03,44.07 174.25,44.07 174.19,44.23 174.41,44.23 174.35,44.39 174.57,44.39 
	174.51,44.55 174.73,44.55 174.67,44.71 174.89,44.71 174.83,44.87 175.05,44.87 174.99,45.03 175.21,45.03 175.15,45.19 
	175.37,45.19 175.32,45.35 175.53,45.35 175.48,45.52 175.69,45.52 175.64,45.68 175.86,45.68 175.8,45.84 176.02,45.84 175.96,46 
	176.18,46 176.12,46.16 176.34,46.16 176.28,46.32 176.5,46.32 176.44,46.48 176.66,46.48 176.6,46.64 176.82,46.64 176.76,46.8 
	176.98,46.8 176.92,46.96 177.14,46.96 177.08,47.12 177.3,47.12 177.24,47.28 177.46,47.28 177.4,47.44 177.62,47.44 177.56,47.6 
	177.78,47.6 177.72,47.76 177.94,47.76 177.88,47.92 178.1,47.92 178.04,48.08 178.26,48.08 178.2,48.24 178.42,48.24 178.36,48.4 
	178.58,48.4 178.52,48.56 178.74,48.56 178.68,48.72 178.9,48.72 178.84,48.88 179.06,48.88 179,49.04 179.22,49.04 179.16,49.2 
	179.38,49.2 179.33,49.37 179.54,49.37 179.49,49.53 179.7,49.53 179.65,49.69 179.87,49.69 179.81,49.85 180.03,49.85 
	179.97,50.01 180.19,50.01 180.13,50.17 180.35,50.17 180.29,50.33 180.51,50.33 180.45,50.49 180.67,50.49 180.61,50.65 
	180.83,50.65 180.77,50.81 180.99,50.81 180.93,50.97 181.15,50.97 181.09,51.13 181.31,51.13 181.25,51.29 181.47,51.29 
	181.41,51.45 181.63,51.45 181.57,51.61 181.79,51.61 181.73,51.77 181.95,51.77 181.89,51.93 182.11,51.93 182.05,52.09 
	182.27,52.09 182.21,52.25 182.43,52.25 182.37,52.41 182.59,52.41 182.53,52.57 182.75,52.57 182.69,52.73 182.91,52.73 
	182.85,52.89 183.07,52.89 183.01,53.05 183.23,53.05 183.17,53.21 183.39,53.21 183.34,53.38 183.55,53.38 183.5,53.54 
	183.72,53.54 183.66,53.7 183.88,53.7 183.82,53.86 184.04,53.86 183.98,54.02 184.2,54.02 184.14,54.18 184.36,54.18 184.3,54.34 
	184.52,54.34 184.46,54.5 184.68,54.5 184.62,54.66 184.84,54.66 184.78,54.82 185,54.82 184.94,54.98 185.16,54.98 185.1,55.14 
	185.32,55.14 185.26,55.3 185.48,55.3 185.42,55.46 185.64,55.46 185.58,55.62 185.8,55.62 185.74,55.78 185.96,55.78 185.9,55.94 
	186.12,55.94 186.06,56.1 186.28,56.1 186.22,56.26 186.44,56.26 186.38,56.42 186.6,56.42 186.54,56.58 186.76,56.58 186.7,56.74 
	186.92,56.74 186.86,56.9 187.08,56.9 187.02,57.06 187.24,57.06 187.19,57.22 187.4,57.22 187.35,57.39 187.56,57.39 187.51,57.55 
	187.73,57.55 187.67,57.71 187.89,57.71 187.83,57.87 188.05,57.87 187.99,58.03 188.21,58.03 188.15,58.19 188.37,58.19 
	188.31,58.35 188.53,58.35 188.47,58.51 188.69,58.51 188.63,58.67 188.85,58.67 188.79,58.83 189.01,58.83 188.95,58.99 
	189.17,58.99 189.11,59.15 189.33,59.15 189.27,59.31 189.49,59.31 189.43,59.47 189.65,59.47 189.59,59.63 189.81,59.63 
	189.75,59.79 189.97,59.79 189.91,59.95 190.13,59.95 190.07,60.11 190.29,60.11 190.23,60.27 190.45,60.27 190.39,60.43 
	190.61,60.43 190.55,60.59 190.77,60.59 190.71,60.75 190.93,60.75 190.87,60.91 191.09,60.91 191.03,61.07 191.25,61.07 
	191.2,61.24 191.41,61.24 191.36,61.4 191.57,61.4 191.52,61.56 191.74,61.56 191.68,61.72 191.9,61.72 191.84,61.88 192.06,61.88 
	192,62.04 192.22,62.04 192.16,62.2 192.38,62.2 192.32,62.36 192.54,62.36 192.48,62.52 192.7,62.52 192.64,62.68 192.86,62.68 
	192.8,62.84 193.02,62.84 192.96,63 193.18,63 193.12,63.16 193.34,63.16 193.28,63.32 193.5,63.32 193.44,63.48 193.66,63.48 
	193.6,63.64 193.82,63.64 193.76,63.8 193.98,63.8 193.92,63.96 194.14,63.96 194.08,64.12 194.3,64.12 194.24,64.28 194.46,64.28 
	194.4,64.44 194.62,64.44 152.34,179.78 "/>
<line class="st2" x1="152.34" y1="179.78" x2="160.95" y2="188.4"/>
<line class="st2" x1="34.83" y1="62.28" x2="152.34" y2="179.78"/>
<line class="st2" x1="49.83" y1="70.28" x2="9.88" y2="30.33"/>
<g>
	<path class="st3" d="M51.74,16.16h36.9L74.23,55.49h20.62l14.42-39.33h37.08l-42.37,115.56H66.89l15.69-42.8H61.97l-15.69,42.8
		H9.37L51.74,16.16z"/>
</g>
</svg>
